<svg width="14" height="14" viewBox="0 0 14 14" fill="none" xmlns="http://www.w3.org/2000/svg">
<path d="M10.09 1.16666C9.3729 1.16666 8.71543 1.3939 8.13592 1.84208C7.58033 2.27176 7.21043 2.81904 6.99266 3.217C6.7749 2.81901 6.40499 2.27176 5.84941 1.84208C5.2699 1.3939 4.61243 1.16666 3.89532 1.16666C1.89412 1.16666 0.384995 2.80353 0.384995 4.97417C0.384995 7.31922 2.26774 8.92367 5.11797 11.3526C5.60198 11.7651 6.1506 12.2326 6.72082 12.7313C6.79598 12.7971 6.89252 12.8333 6.99266 12.8333C7.09281 12.8333 7.18935 12.7971 7.26451 12.7313C7.83478 12.2326 8.38337 11.765 8.86767 11.3523C11.7176 8.92367 13.6003 7.31922 13.6003 4.97417C13.6003 2.80353 12.0912 1.16666 10.09 1.16666Z" fill="white"/>
</svg>
