<svg width="12" height="13" viewBox="0 0 12 13" fill="none" xmlns="http://www.w3.org/2000/svg">
<path fill-rule="evenodd" clip-rule="evenodd" d="M9.375 5H9V3.5C9 1.8455 7.6545 0.5 6 0.5C4.3455 0.5 3 1.8455 3 3.5V5H2.625C2.005 5 1.5 5.5045 1.5 6.125V11.375C1.5 11.9955 2.005 12.5 2.625 12.5H9.375C9.995 12.5 10.5 11.9955 10.5 11.375V6.125C10.5 5.5045 9.995 5 9.375 5ZM4 3.5C4 2.397 4.897 1.5 6 1.5C7.103 1.5 8 2.397 8 3.5V5H4V3.5ZM6.5 10V8.861C6.7975 8.6875 7 8.3685 7 8C7 7.4485 6.5515 7 6 7C5.4485 7 5 7.4485 5 8C5 8.3685 5.2025 8.6875 5.5 8.861V10C5.5 10.276 5.7235 10.5 6 10.5C6.2765 10.5 6.5 10.276 6.5 10Z" fill="#25282B"/>
</svg>
