<svg width="25" height="25" viewBox="0 0 25 25" fill="none" xmlns="http://www.w3.org/2000/svg">
<path fill-rule="evenodd" clip-rule="evenodd" d="M3.40985 19.4502H20.6545C20.9808 19.4502 21.2796 19.2301 21.3475 18.911C21.4147 18.595 21.2706 18.2832 20.9785 18.1482C20.9091 18.1033 20.3873 17.7383 19.8648 16.6343C18.9053 14.6069 18.7039 11.751 18.7039 9.71215C18.7039 9.7033 18.7037 9.69446 18.7034 9.68566C18.6892 6.01904 15.7019 3.04071 12.032 3.04071C8.35331 3.04071 5.36047 6.03346 5.36047 9.71215C5.36047 11.751 5.15906 14.6069 4.19953 16.6343C3.67708 17.7383 3.15524 18.1032 3.08591 18.1482C2.79375 18.2832 2.64974 18.595 2.71691 18.911C2.78476 19.2302 3.0836 19.4502 3.40985 19.4502ZM12.0322 22.9564C10.5801 22.9564 9.3292 22.0819 8.77644 20.8322H15.2879C14.7351 22.0819 13.4842 22.9564 12.0322 22.9564Z" fill="#BDBEBF"/>
<circle cx="19" cy="6" r="5" fill="#DD4949" stroke="white" stroke-width="2"/>
</svg>
